<?xml version="1.0" encoding="utf-8" ?><svg xmlns="http://www.w3.org/2000/svg" xmlns:xlink="http://www.w3.org/1999/xlink" width="1344" height="768" viewBox="0 0 1344 768"><path fill="#1D8E8F" d="M249.434 453.933C243.99 449.33 236.572 443.324 231.718 438.313C215.339 421.55 205.235 399.654 203.107 376.312C201.064 351.385 209.054 325.761 225.037 306.509C232.42 297.432 242.299 290.089 248.126 279.83C258.309 261.902 260.595 240.054 274.503 224.148C281.873 215.718 290.79 207.579 302.633 207.275C339.41 206.33 377.575 222.678 404.837 246.652C436.64 275.048 455.995 314.82 458.721 357.373C464.361 448.006 399.07 523.399 308.541 530.354C273.897 533.016 262.453 495.777 252.437 469.859C249.311 462.776 249.294 461.418 249.434 453.933ZM374.718 363.797C375.006 378.576 373.156 389.079 366.595 402.156C363.908 407.505 352.622 415.831 347.626 408.475C346.008 406.092 351.022 398.01 352.639 395.143C356.131 387.898 357.777 380.323 358.284 372.314C359.318 356.015 353.777 339.982 342.9 327.801C329.974 313.177 316.068 309.963 297.641 308.771C295.451 308.682 293.464 308.291 291.307 307.932C285.985 313.558 291.088 326.555 295.195 331.865C308.542 334.136 318.282 335.143 327.179 347.346C332.85 355.123 334.955 366.062 333.285 375.515C331.492 385.25 325.87 393.859 317.679 399.413C315.786 400.695 313.744 401.82 311.727 402.897C311.596 400.231 311.718 397.226 310.391 394.988L309.445 395.036C306.612 400.12 304.887 425.237 307.041 429.567C309.009 429.478 309.493 429.375 311.398 428.851L314.297 428.325C314.007 427.591 313.284 426.578 312.832 425.875C308.44 420.79 308.537 408.106 320.206 412.411C333.824 418.073 351.296 417.423 365.003 412.371C377.825 407.645 393.905 396.428 399.754 383.855C394.312 375.727 382.863 368.84 374.718 363.797ZM390.462 416.754C379.533 423.425 368.026 429.808 355.19 432.023C349.283 433.042 342.652 433.142 336.87 434.545C332.315 436.191 330.362 437.152 326.143 439.396C319.418 443.972 298.945 448.527 292.533 444.247C288.628 441.64 290.081 409.115 290.167 403.586C281.589 400.569 274.525 396.894 269.232 389.203C263.725 381.089 261.703 371.104 263.62 361.487C265.47 352.151 271.289 344.204 279.097 338.925C268.196 303.337 270.794 275.352 298.747 249.124C363.616 250.827 410.045 294.731 416.84 359.036C417.744 366.586 417.376 376.889 416.441 384.463C414.235 407.442 404.73 429.109 389.319 446.293C364.883 473.924 333.571 486.809 297.361 489.018C289.158 483.61 274.984 459.477 264.723 462.08L264.22 463.216C265.222 468.093 270.677 473.422 272.373 477.922C276.623 489.201 286.685 513.361 300.826 514.404C327.568 516.378 360.794 502.857 382.422 487.885C413.44 465.969 434.512 432.652 441.025 395.229C448.011 356.536 439.455 316.65 417.213 284.23C394.585 252.299 360.248 230.616 321.696 223.912C312.646 222.326 301.941 221.126 293.978 226.641C282.672 234.472 270.467 261.601 268.543 274.344C269.571 274.763 271.101 275.023 271.317 276.05C272.4 281.215 273.234 288.004 268.267 291.112L267.742 291.523C262.312 295.73 255.674 298.878 250.095 303.193C232.895 316.494 222.153 336.767 219.298 358.156C216.356 379.595 222.107 401.322 235.271 418.496C241.907 427.18 253.231 437.318 263.058 442.038C281.907 451.09 290.024 455.707 302.2 472.848C341.67 467.607 370.85 452.78 390.462 416.754ZM295.379 348.835C284.392 350.488 276.844 360.762 278.549 371.743C280.253 382.725 290.56 390.226 301.53 388.469C312.428 386.725 319.867 376.499 318.174 365.59C316.481 354.682 306.292 347.193 295.379 348.835ZM290.758 293.526C357.174 286.016 359.63 345.422 402.135 363.045C401.802 360.92 401.597 358 401.376 355.797C399.62 348.098 397.397 337.625 394.643 330.431C387.078 310.668 371.88 292.017 353.945 280.781C337.671 270.584 322.86 267.32 304.22 265.327C298.227 274.274 292.846 282.74 290.758 293.526Z"/><path fill="#155B65" d="M249.434 453.933C257.942 452.185 262.812 463.443 261.565 470.519L260.685 471.522C257.864 471.543 255.161 470.625 252.437 469.859C249.311 462.776 249.294 461.418 249.434 453.933Z"/><path fill="#1D8E8F" d="M264.249 311.66C267.882 314.203 267.863 323.962 268.152 328.071C258.131 338.716 250.682 348.263 248.783 363.856C246.76 380.465 254.445 397.612 267.253 408.338C272.073 411.826 277.148 413.722 281.048 418.395C284.165 422.128 280.442 426.986 277.26 429.318C275.937 430.288 273.6 429.757 271.978 429.404C261.523 424.476 252.486 416.98 245.711 407.614C235.209 393.211 230.986 375.168 234.004 357.599C237.367 337.752 248.113 323.104 264.249 311.66Z"/><path fill="#155B65" d="M352.639 395.143C355.657 403.222 359.142 400.801 366.595 402.156C363.908 407.505 352.622 415.831 347.626 408.475C346.008 406.092 351.022 398.01 352.639 395.143Z"/><path fill="#155B65" d="M311.398 428.851L314.297 428.325C321.627 438.966 326.438 427.135 336.87 434.545C332.315 436.191 330.362 437.152 326.143 439.396C315.942 440.376 313.165 439.037 311.398 428.851Z"/><path fill="#155B65" d="M268.543 274.344C269.571 274.763 271.101 275.023 271.317 276.05C272.4 281.215 273.234 288.004 268.267 291.112C266.121 291.02 258.772 295.176 256.2 296.484C260.423 289.208 264.814 281.875 268.543 274.344Z"/><path fill="#155B65" d="M401.376 355.797C405.935 360.881 411.194 365.689 416.167 370.4L416.84 359.036C417.744 366.586 417.376 376.889 416.441 384.463C410.593 372.029 411.859 373.358 402.135 363.045C401.802 360.92 401.597 358 401.376 355.797Z"/><path fill="#155B65" d="M291.307 307.932C289.729 303.799 288.277 296.6 293.202 294.246C298.414 296.442 297.714 303.841 297.641 308.771C295.451 308.682 293.464 308.291 291.307 307.932Z"/><path fill="#155B65" d="M312.832 425.875C308.44 420.79 308.537 408.106 320.206 412.411C318.587 418.14 317.676 421.944 312.832 425.875Z"/><path fill="#552580" d="M507.554 317.207C525.045 316.785 542.751 317.167 560.261 317.017C566.75 316.962 573.631 317.026 580.094 317.515L580.106 335.387L529.366 335.5C529.132 343.046 529.007 348.83 529.433 356.428C536.689 356.375 566.938 355.496 571.897 357.443C574.411 360.95 573.573 368.917 573.474 373.411C559.057 373.549 544.338 373.382 529.898 373.361C529.399 375.736 529.006 378.132 528.722 380.542C528.191 385.148 527.96 389.4 530.929 393.154C536.05 395.707 573.883 394.771 582.112 394.747C582.353 400.444 582.249 407.06 582.3 412.831L507.257 412.714C506.124 385.214 507.761 357.253 507.176 329.702C507.088 325.551 507.194 321.344 507.554 317.207Z"/><path fill="#552580" d="M670.063 312.566C676.941 312.453 684.092 312.579 690.993 312.604C690.882 324.199 690.962 335.796 691.232 347.388C704.245 339.175 722.893 334.726 735.244 346.793C746.58 357.869 744.347 382.797 744.291 397.563C749.908 395.684 754.085 393.581 759.261 390.794C761.654 394.328 764.795 398.716 766.956 402.286C753.402 413.186 739.793 413.037 723.499 412.86C723.717 399.637 725.583 373.318 720.116 362.614C685.377 341.569 690.318 394.01 691.414 412.809L670.058 412.843C669.106 379.097 670.141 346.271 670.063 312.566Z"/><path fill="#552580" d="M624.282 339.565C641.319 338.486 651.756 343.371 661.57 357.147C656.32 360.462 651.09 363.809 645.882 367.189C641.705 363.093 637.247 358.939 631.41 357.437C627.217 356.319 622.748 356.995 619.072 359.301C603.93 368.652 606.631 391.357 623.981 396.18C633.81 398.912 641.923 386.471 648.061 387.938C652.059 389.917 657.194 392.049 659.951 395.423C661.663 403.839 641.153 412.243 634.524 413.448C623.752 415.407 612.646 412.922 603.736 406.558C585.965 394.025 583.612 371.269 596.013 353.736C602.773 344.178 613.271 341.264 624.282 339.565Z"/><path fill="#552580" d="M1061.81 341.45C1062.45 341.367 1063.11 341.303 1063.76 341.26C1089.65 339.518 1098.35 357.315 1099.49 380.017C1083.45 380.867 1067.6 380.112 1051.61 380.377C1049.78 380.408 1046.76 380.844 1045.53 382.295C1044.92 395.619 1059.02 406.583 1071.63 404.481C1075.85 403.778 1077.99 403.217 1081.99 401.822C1084.95 400.307 1087.75 397.877 1090.37 395.785C1092.14 397.605 1094.01 399.962 1095.66 401.949C1090.16 407.039 1085.69 410.642 1078.2 412.62C1058.8 417.747 1040.7 406.161 1035.82 386.944C1033.21 376.296 1034.97 365.042 1040.73 355.708C1045.94 347.262 1052.46 343.67 1061.81 341.45ZM1074.61 372.43C1079.61 372.452 1085.22 372.598 1090.18 372.442C1086.89 356.995 1079.31 347.18 1061.94 350.005C1055.57 352.692 1044.58 361.007 1044.97 368.66C1048.4 375.524 1067.27 372.36 1074.61 372.43Z"/><path fill="#552580" d="M938.107 340.952C970.916 337.875 967.036 370.949 966.56 392.819C966.413 399.555 970.082 410.275 963.29 413.743C958.45 413.173 958.093 408.631 957.927 404.713C942.287 416.886 923.418 418.866 912.555 399.817C905.876 368.117 936.897 372.367 957.625 371.763C954.081 330.359 922.423 358.931 914.377 356.039C913.785 353.787 915.513 349.842 916.997 348.193C921.896 342.756 931.212 341.643 938.107 340.952ZM943.581 404.71C957.587 398.781 957.643 393.971 957.521 379.423C949.549 379.355 941.746 379.259 933.771 379.536C910.13 385.149 921.05 409.912 943.581 404.71Z"/><path fill="#552580" d="M1027.76 341.323C1030.5 341.261 1032.66 340.829 1034.51 343.078C1035.16 353.79 1008.83 406.066 1005.6 418.679C998.861 444.937 966.272 441.458 969.393 428.915C979.082 419.414 985.834 445.642 998.45 413.011C997.072 408.428 995.351 404.286 993.575 399.851C988.481 387.843 983.543 375.77 978.76 363.635C976.48 357.985 970.859 348.258 972.733 342.515C974.404 340.624 973.572 341.052 975.808 340.689C977.095 341.144 978.556 341.972 979.253 343.131C989.385 359.98 995.113 382.786 1004.13 400.124C1011.67 382.744 1018.89 357.445 1027.76 341.323Z"/><path fill="#552580" d="M850.497 317.766L860.325 317.711C860.402 344.788 859.462 377.159 860.498 403.548C869.259 403.659 901.618 402.231 907.043 404.817C908.487 406.513 909.677 411.35 907.582 411.645C890.249 414.078 869.096 413.054 851.486 412.099C849.635 399.293 850.535 369.083 850.596 355.106C843.429 356.772 840.442 357.873 834.013 361.626C832.773 357.412 829.801 353.368 827.327 349.75C834.418 344.284 841.691 341.587 850.37 339.745L850.497 317.766Z"/><path fill="#8B4ABD" d="M759.261 390.794C751.987 369.834 758.883 349.724 780.691 342.007C791.483 338.151 803.369 338.777 813.696 343.744C815.872 344.814 818.312 346.195 820.391 347.435C817.221 350.583 811.763 356.322 808.503 358.992C800.652 357.175 792.917 355.352 785.428 359.948C781.539 362.329 778.774 366.179 777.761 370.626C776.248 377.057 777.803 382.434 780.115 388.367C776.006 393.482 772.035 398.068 766.956 402.286C764.795 398.716 761.654 394.328 759.261 390.794Z"/><path fill="#8B4ABD" d="M827.327 349.75C829.801 353.368 832.773 357.412 834.013 361.626C834.915 373.689 838.615 379.911 831.826 393.11C827.126 402.097 819.041 408.841 809.358 411.852C795.942 416.08 785.23 412.855 773.394 406.7L785.494 394.108C791.76 395.603 796.596 396.867 802.963 394.959C807.341 393.693 811 390.672 813.073 386.612C816.732 379.381 814.858 372.391 812.507 365.288C817.682 358.585 820.901 355.258 827.327 349.75Z"/><path fill="#552580" d="M1138.06 340.736C1140.15 340.714 1141.22 340.513 1142.96 341.738C1143.73 343.321 1145.57 349.048 1142.74 349.556C1112.35 355.019 1120.06 382.861 1119.86 405.41C1119.83 408.683 1119.68 410.438 1117.31 412.677C1114.82 413.234 1114.51 413.276 1111.98 412.723C1110.17 411.121 1110.72 411.955 1110.18 409.108C1109.89 395.307 1109.75 381.503 1109.77 367.699C1109.78 361.41 1109.66 349.024 1110.67 343.065C1112.64 340.964 1116.52 341.015 1118.56 342.855C1119.63 345.971 1119.48 349.336 1119.54 352.644C1125.62 345.65 1129.02 343.077 1138.06 340.736Z"/></svg>